ETBook-RomanOSF.ufo
<glyph name="colon" format="2">
  <advance width="257"/>
  <unicode hex="003A"/>
  <outline>
    <contour>
      <point x="182" y="350" type="curve" smooth="yes"/>
      <point x="182" y="381"/>
      <point x="159" y="401"/>
      <point x="129" y="401" type="curve" smooth="yes"/>
      <point x="99" y="401"/>
      <point x="76" y="381"/>
      <point x="76" y="350" type="curve" smooth="yes"/>
      <point x="76" y="321"/>
      <point x="99" y="300"/>
      <point x="129" y="300" type="curve" smooth="yes"/>
      <point x="159" y="300"/>
      <point x="182" y="321"/>
    </contour>
    <contour>
      <point x="182" y="41" type="curve" smooth="yes"/>
      <point x="182" y="71"/>
      <point x="159" y="91"/>
      <point x="129" y="91" type="curve" smooth="yes"/>
      <point x="99" y="91"/>
      <point x="76" y="71"/>
      <point x="76" y="41" type="curve" smooth="yes"/>
      <point x="76" y="12"/>
      <point x="99" y="-10"/>
      <point x="129" y="-10" type="curve" smooth="yes"/>
      <point x="159" y="-10"/>
      <point x="182" y="11"/>
    </contour>
  </outline>
</glyph>
<glyph name="E" format="2">
  <advance width="619"/>
  <unicode hex="0045"/>
  <outline>
    <contour>
      <point x="579" y="159" type="curve"/>
      <point x="577" y="163"/>
      <point x="567" y="164"/>
      <point x="558" y="163" type="curve"/>
      <point x="554" y="162"/>
      <point x="550" y="160"/>
      <point x="548" y="152" type="curve" smooth="yes"/>
      <point x="539" y="116"/>
      <point x="525" y="88"/>
      <point x="511" y="71" type="curve" smooth="yes"/>
      <point x="494" y="51"/>
      <point x="478" y="47"/>
      <point x="403" y="47" type="curve" smooth="yes"/>
      <point x="323" y="47" type="line" smooth="yes"/>
      <point x="250" y="47"/>
      <point x="248" y="51"/>
      <point x="248" y="128" type="curve" smooth="yes"/>
      <point x="248" y="296" type="line" smooth="yes"/>
      <point x="248" y="306"/>
      <point x="255" y="310"/>
      <point x="262" y="312" type="curve"/>
      <point x="377" y="311" type="line" smooth="yes"/>
      <point x="456" y="310"/>
      <point x="460" y="306"/>
      <point x="471" y="237" type="curve" smooth="yes"/>
      <point x="472" y="232"/>
      <point x="481" y="231"/>
      <point x="489" y="232" type="curve" smooth="yes"/>
      <point x="498" y="233"/>
      <point x="501" y="238"/>
      <point x="501" y="246" type="curve" smooth="yes"/>
      <point x="502" y="290"/>
      <point x="504" y="373"/>
      <point x="502" y="424" type="curve"/>
      <point x="501" y="429"/>
      <point x="499" y="438"/>
      <point x="494" y="439" type="curve"/>
      <point x="486" y="440"/>
      <point x="473" y="437"/>
      <point x="472" y="434" type="curve"/>
      <point x="462" y="362"/>
      <point x="458" y="360"/>
      <point x="380" y="360" type="curve" smooth="yes"/>
      <point x="262" y="360" type="line" smooth="yes"/>
      <point x="256" y="360"/>
      <point x="248" y="370"/>
      <point x="248" y="381" type="curve" smooth="yes"/>
      <point x="248" y="583" type="line" smooth="yes"/>
      <point x="248" y="590"/>
      <point x="258" y="605"/>
      <point x="267" y="605" type="curve" smooth="yes"/>
      <point x="309" y="607"/>
      <point x="367" y="605"/>
      <point x="401" y="604" type="curve" smooth="yes"/>
      <point x="482" y="603"/>
      <point x="496" y="594"/>
      <point x="509" y="511" type="curve"/>
      <point x="509" y="506"/>
      <point x="510" y="501"/>
      <point x="516" y="500" type="curve"/>
      <point x="525" y="497"/>
      <point x="539" y="496"/>
      <point x="540" y="503" type="curve"/>
      <point x="538" y="532"/>
      <point x="540" y="567"/>
      <point x="531" y="640" type="curve"/>
      <point x="531" y="647"/>
      <point x="521" y="650"/>
      <point x="512" y="650" type="curve" smooth="yes"/>
      <point x="415" y="652"/>
      <point x="199" y="651"/>
      <point x="66" y="650" type="curve" smooth="yes"/>
      <point x="60" y="650"/>
      <point x="53" y="652"/>
      <point x="49" y="645" type="curve"/>
      <point x="46" y="639"/>
      <point x="42" y="630"/>
      <point x="45" y="624" type="curve"/>
      <point x="52" y="612"/>
      <point x="62" y="615"/>
      <point x="73" y="615" type="curve" smooth="yes"/>
      <point x="147" y="615"/>
      <point x="151" y="595"/>
      <point x="151" y="514" type="curve" smooth="yes"/>
      <point x="151" y="134" type="line" smooth="yes"/>
      <point x="151" y="48"/>
      <point x="142" y="37"/>
      <point x="77" y="35" type="curve" smooth="yes"/>
      <point x="62" y="35"/>
      <point x="49" y="36"/>
      <point x="34" y="34" type="curve" smooth="yes"/>
      <point x="24" y="33"/>
      <point x="21" y="14"/>
      <point x="25" y="4" type="curve"/>
      <point x="27" y="-2"/>
      <point x="31" y="-2"/>
      <point x="37" y="-3" type="curve"/>
      <point x="169" y="-2"/>
      <point x="389" y="-2"/>
      <point x="525" y="-2" type="curve" smooth="yes"/>
      <point x="536" y="-2"/>
      <point x="563" y="-4"/>
      <point x="565" y="12" type="curve" smooth="yes"/>
      <point x="568" y="40"/>
      <point x="578" y="88"/>
    </contour>
  </outline>
</glyph>
<glyph name="R" format="2">
  <advance width="696"/>
  <unicode hex="0052"/>
  <outline>
    <contour>
      <point x="679" y="-9" type="line"/>
      <point x="685" y="0"/>
      <point x="681" y="10"/>
      <point x="673" y="16" type="curve"/>
      <point x="648" y="21"/>
      <point x="633" y="29"/>
      <point x="619" y="40" type="curve" smooth="yes"/>
      <point x="587" y="65"/>
      <point x="578" y="73"/>
      <point x="556" y="107" type="curve" smooth="yes"/>
      <point x="500" y="191" type="line" smooth="yes"/>
      <point x="480" y="221"/>
      <point x="464" y="250"/>
      <point x="441" y="287" type="curve" smooth="yes"/>
      <point x="437" y="293"/>
      <point x="435" y="297"/>
      <point x="443" y="300" type="curve"/>
      <point x="503" y="331"/>
      <point x="543" y="397"/>
      <point x="543" y="471" type="curve" smooth="yes"/>
      <point x="543" y="519"/>
      <point x="523" y="564"/>
      <point x="488" y="596" type="curve" smooth="yes"/>
      <point x="438" y="641"/>
      <point x="399" y="659"/>
      <point x="278" y="659" type="curve" smooth="yes"/>
      <point x="221" y="659"/>
      <point x="105" y="659"/>
      <point x="40" y="652" type="curve" smooth="yes"/>
      <point x="30" y="651" type="line"/>
      <point x="16" y="644"/>
      <point x="21" y="618"/>
      <point x="30" y="618" type="curve" smooth="yes"/>
      <point x="124" y="617"/>
      <point x="126" y="612"/>
      <point x="126" y="515" type="curve" smooth="yes"/>
      <point x="126" y="134" type="line"/>
      <point x="126" y="99" type="line" smooth="yes"/>
      <point x="126" y="45"/>
      <point x="109" y="34"/>
      <point x="50" y="34" type="curve" smooth="yes"/>
      <point x="41" y="34"/>
      <point x="24" y="36"/>
      <point x="20" y="26" type="curve"/>
      <point x="18" y="20"/>
      <point x="17" y="11"/>
      <point x="20" y="5" type="curve" smooth="yes"/>
      <point x="24" y="-3"/>
      <point x="24" y="-2"/>
      <point x="33" y="-5" type="curve"/>
      <point x="121" y="-4"/>
      <point x="245" y="-1"/>
      <point x="321" y="-3" type="curve" smooth="yes"/>
      <point x="323" y="-3"/>
      <point x="334" y="1"/>
      <point x="335" y="5" type="curve"/>
      <point x="336" y="11"/>
      <point x="335" y="22"/>
      <point x="334" y="27" type="curve"/>
      <point x="329" y="41"/>
      <point x="311" y="35"/>
      <point x="300" y="34" type="curve"/>
      <point x="241" y="34"/>
      <point x="227" y="45"/>
      <point x="225" y="99" type="curve" smooth="yes"/>
      <point x="224" y="151"/>
      <point x="224" y="196"/>
      <point x="224" y="247" type="curve" smooth="yes"/>
      <point x="224" y="255"/>
      <point x="235" y="263"/>
      <point x="244" y="263" type="curve"/>
      <point x="278" y="261"/>
      <point x="307" y="265"/>
      <point x="340" y="269" type="curve" smooth="yes"/>
      <point x="354" y="270"/>
      <point x="364" y="246"/>
      <point x="370" y="236" type="curve" smooth="yes"/>
      <point x="383" y="212"/>
      <point x="396" y="189"/>
      <point x="410" y="166" type="curve" smooth="yes"/>
      <point x="436" y="125"/>
      <point x="463" y="83"/>
      <point x="495" y="46" type="curve" smooth="yes"/>
      <point x="521" y="16"/>
      <point x="555" y="-15"/>
      <point x="643" y="-15" type="curve" smooth="yes"/>
      <point x="653" y="-15"/>
      <point x="663" y="-13"/>
      <point x="673" y="-13" type="curve"/>
    </contour>
    <contour>
      <point x="435" y="464" type="curve" smooth="yes"/>
      <point x="435" y="394"/>
      <point x="400" y="327"/>
      <point x="332" y="304" type="curve" smooth="yes"/>
      <point x="308" y="296"/>
      <point x="265" y="298"/>
      <point x="234" y="300" type="curve"/>
      <point x="230" y="300"/>
      <point x="224" y="305"/>
      <point x="224" y="320" type="curve" smooth="yes"/>
      <point x="224" y="605" type="line" smooth="yes"/>
      <point x="224" y="624"/>
      <point x="252" y="628"/>
      <point x="268" y="628" type="curve" smooth="yes"/>
      <point x="401" y="628"/>
      <point x="435" y="560"/>
    </contour>
  </outline>
</glyph>
<glyph name="S" format="2">
  <advance width="513"/>
  <unicode hex="0053"/>
  <outline>
    <contour>
      <point x="459" y="164" type="curve" smooth="yes"/>
      <point x="459" y="303"/>
      <point x="295" y="361"/>
      <point x="206" y="441" type="curve" smooth="yes"/>
      <point x="174" y="469"/>
      <point x="149" y="502"/>
      <point x="149" y="540" type="curve" smooth="yes"/>
      <point x="149" y="593"/>
      <point x="184" y="631"/>
      <point x="248" y="631" type="curve" smooth="yes"/>
      <point x="316" y="631"/>
      <point x="360" y="585"/>
      <point x="390" y="509" type="curve"/>
      <point x="393" y="503"/>
      <point x="416" y="500"/>
      <point x="417" y="514" type="curve"/>
      <point x="414" y="541"/>
      <point x="404" y="634"/>
      <point x="398" y="650" type="curve"/>
      <point x="393" y="652"/>
      <point x="382" y="652"/>
      <point x="375" y="650" type="curve"/>
      <point x="366" y="642"/>
      <point x="364" y="641"/>
      <point x="359" y="641" type="curve" smooth="yes"/>
      <point x="353" y="641"/>
      <point x="344" y="643"/>
      <point x="322" y="650" type="curve" smooth="yes"/>
      <point x="289" y="661"/>
      <point x="275" y="667"/>
      <point x="239" y="667" type="curve" smooth="yes"/>
      <point x="132" y="667"/>
      <point x="61" y="602"/>
      <point x="61" y="511" type="curve" smooth="yes"/>
      <point x="61" y="417"/>
      <point x="139" y="362"/>
      <point x="216" y="311" type="curve" smooth="yes"/>
      <point x="277" y="271"/>
      <point x="370" y="218"/>
      <point x="370" y="134" type="curve" smooth="yes"/>
      <point x="370" y="70"/>
      <point x="321" y="21"/>
      <point x="244" y="21" type="curve" smooth="yes"/>
      <point x="208" y="21"/>
      <point x="189" y="30"/>
      <point x="160" y="50" type="curve" smooth="yes"/>
      <point x="123" y="76"/>
      <point x="105" y="104"/>
      <point x="85" y="165" type="curve"/>
      <point x="80" y="171"/>
      <point x="55" y="170"/>
      <point x="56" y="160" type="curve" smooth="yes"/>
      <point x="62" y="89"/>
      <point x="76" y="5"/>
      <point x="78" y="-2" type="curve"/>
      <point x="84" y="-4"/>
      <point x="95" y="-6"/>
      <point x="104" y="-2" type="curve"/>
      <point x="110" y="7"/>
      <point x="113" y="9"/>
      <point x="119" y="9" type="curve" smooth="yes"/>
      <point x="124" y="9"/>
      <point x="128" y="8"/>
      <point x="149" y="2" type="curve" smooth="yes"/>
      <point x="183" y="-8"/>
      <point x="217" y="-19"/>
      <point x="253" y="-19" type="curve" smooth="yes"/>
      <point x="377" y="-19"/>
      <point x="459" y="59"/>
    </contour>
  </outline>
</glyph>
<glyph name="Y" format="2">
  <advance width="728"/>
  <unicode hex="0059"/>
  <outline>
    <contour>
      <point x="730" y="635" type="curve" smooth="yes"/>
      <point x="730" y="642"/>
      <point x="728" y="650"/>
      <point x="721" y="650" type="curve" smooth="yes"/>
      <point x="642" y="648"/>
      <point x="549" y="648"/>
      <point x="498" y="650" type="curve" smooth="yes"/>
      <point x="484" y="651"/>
      <point x="483" y="623"/>
      <point x="495" y="618" type="curve"/>
      <point x="505" y="618" type="line" smooth="yes"/>
      <point x="551" y="618"/>
      <point x="562" y="611"/>
      <point x="562" y="592" type="curve" smooth="yes"/>
      <point x="562" y="581"/>
      <point x="557" y="570"/>
      <point x="530" y="525" type="curve" smooth="yes"/>
      <point x="423" y="344" type="line" smooth="yes"/>
      <point x="417" y="333"/>
      <point x="401" y="323"/>
      <point x="396" y="331" type="curve" smooth="yes"/>
      <point x="262" y="537" type="line" smooth="yes"/>
      <point x="233" y="582"/>
      <point x="231" y="588"/>
      <point x="231" y="599" type="curve" smooth="yes"/>
      <point x="231" y="610"/>
      <point x="243" y="619"/>
      <point x="293" y="619" type="curve" smooth="yes"/>
      <point x="318" y="619"/>
      <point x="304" y="650"/>
      <point x="296" y="650" type="curve" smooth="yes"/>
      <point x="242" y="648"/>
      <point x="96" y="649"/>
      <point x="27" y="650" type="curve"/>
      <point x="22" y="651"/>
      <point x="17" y="646"/>
      <point x="16" y="638" type="curve"/>
      <point x="15" y="635"/>
      <point x="15" y="627"/>
      <point x="16" y="624" type="curve"/>
      <point x="18" y="616"/>
      <point x="24" y="617"/>
      <point x="30" y="617" type="curve" smooth="yes"/>
      <point x="90" y="614"/>
      <point x="110" y="602"/>
      <point x="158" y="527" type="curve" smooth="yes"/>
      <point x="341" y="241" type="line"/>
      <point x="343" y="203"/>
      <point x="342" y="132"/>
      <point x="340" y="99" type="curve" smooth="yes"/>
      <point x="338" y="62"/>
      <point x="322" y="37"/>
      <point x="284" y="35" type="curve"/>
      <point x="277" y="35"/>
      <point x="266" y="37"/>
      <point x="257" y="36" type="curve"/>
      <point x="247" y="36"/>
      <point x="239" y="34"/>
      <point x="236" y="26" type="curve" smooth="yes"/>
      <point x="232" y="15"/>
      <point x="236" y="-3"/>
      <point x="247" y="-3" type="curve" smooth="yes"/>
      <point x="356" y="0"/>
      <point x="405" y="-2"/>
      <point x="527" y="-4" type="curve" smooth="yes"/>
      <point x="535" y="-4"/>
      <point x="539" y="4"/>
      <point x="539" y="13" type="curve" smooth="yes"/>
      <point x="539" y="22"/>
      <point x="535" y="31"/>
      <point x="527" y="33" type="curve" smooth="yes"/>
      <point x="514" y="36"/>
      <point x="505" y="33"/>
      <point x="494" y="34" type="curve" smooth="yes"/>
      <point x="451" y="40"/>
      <point x="438" y="62"/>
      <point x="438" y="99" type="curve" smooth="yes"/>
      <point x="438" y="128"/>
      <point x="439" y="204"/>
      <point x="438" y="253" type="curve"/>
      <point x="586" y="504" type="line" smooth="yes"/>
      <point x="602" y="531"/>
      <point x="616" y="559"/>
      <point x="638" y="582" type="curve" smooth="yes"/>
      <point x="657" y="602"/>
      <point x="683" y="616"/>
      <point x="721" y="618" type="curve"/>
      <point x="728" y="618"/>
      <point x="730" y="629"/>
    </contour>
  </outline>
</glyph>
<glyph name="w" format="2">
  <advance width="753"/>
  <unicode hex="0077"/>
  <outline>
    <contour>
      <point x="740" y="386" type="curve" smooth="yes"/>
      <point x="747" y="387"/>
      <point x="750" y="420"/>
      <point x="735" y="417" type="curve"/>
      <point x="676" y="416"/>
      <point x="604" y="416"/>
      <point x="561" y="417" type="curve" smooth="yes"/>
      <point x="548" y="417"/>
      <point x="553" y="388"/>
      <point x="559" y="386" type="curve"/>
      <point x="569" y="385"/>
      <point x="579" y="385"/>
      <point x="588" y="385" type="curve"/>
      <point x="617" y="383"/>
      <point x="638" y="374"/>
      <point x="631" y="338" type="curve" smooth="yes"/>
      <point x="626" y="311"/>
      <point x="547" y="123"/>
      <point x="544" y="116" type="curve" smooth="yes"/>
      <point x="542" y="111"/>
      <point x="532" y="100"/>
      <point x="529" y="108" type="curve" smooth="yes"/>
      <point x="445" y="311" type="line" smooth="yes"/>
      <point x="433" y="340"/>
      <point x="430" y="351"/>
      <point x="430" y="360" type="curve" smooth="yes"/>
      <point x="430" y="376"/>
      <point x="440" y="385"/>
      <point x="483" y="386" type="curve"/>
      <point x="486" y="388"/>
      <point x="488" y="401"/>
      <point x="485" y="409" type="curve"/>
      <point x="482" y="419"/>
      <point x="475" y="417"/>
      <point x="466" y="416" type="curve" smooth="yes"/>
      <point x="391" y="410"/>
      <point x="309" y="416"/>
      <point x="263" y="417" type="curve" smooth="yes"/>
      <point x="259" y="417"/>
      <point x="257" y="409"/>
      <point x="258" y="401" type="curve"/>
      <point x="258" y="394"/>
      <point x="261" y="386"/>
      <point x="265" y="386" type="curve" smooth="yes"/>
      <point x="272" y="386"/>
      <point x="278" y="385"/>
      <point x="284" y="385" type="curve"/>
      <point x="302" y="384"/>
      <point x="314" y="381"/>
      <point x="328" y="367" type="curve" smooth="yes"/>
      <point x="342" y="353"/>
      <point x="351" y="331"/>
      <point x="360" y="313" type="curve"/>
      <point x="360" y="314" type="line"/>
      <point x="270" y="103" type="line" smooth="yes"/>
      <point x="266" y="94"/>
      <point x="257" y="106"/>
      <point x="255" y="111" type="curve" smooth="yes"/>
      <point x="247" y="130"/>
      <point x="223" y="187"/>
      <point x="201" y="243" type="curve" smooth="yes"/>
      <point x="179" y="299"/>
      <point x="158" y="353"/>
      <point x="158" y="364" type="curve" smooth="yes"/>
      <point x="158" y="375"/>
      <point x="166" y="385"/>
      <point x="209" y="387" type="curve" smooth="yes"/>
      <point x="217" y="387"/>
      <point x="218" y="400"/>
      <point x="215" y="408" type="curve"/>
      <point x="212" y="420"/>
      <point x="207" y="416"/>
      <point x="198" y="416" type="curve" smooth="yes"/>
      <point x="95" y="411"/>
      <point x="54" y="416"/>
      <point x="17" y="416" type="curve"/>
      <point x="11" y="417"/>
      <point x="5" y="419"/>
      <point x="3" y="411" type="curve"/>
      <point x="1" y="405"/>
      <point x="0" y="387"/>
      <point x="8" y="386" type="curve"/>
      <point x="58" y="383"/>
      <point x="65" y="377"/>
      <point x="95" y="302" type="curve" smooth="yes"/>
      <point x="217" y="1" type="line"/>
      <point x="219" y="-4" type="line"/>
      <point x="221" y="-8"/>
      <point x="223" y="-10"/>
      <point x="228" y="-11" type="curve"/>
      <point x="230" y="-12"/>
      <point x="234" y="-12"/>
      <point x="237" y="-12" type="curve" smooth="yes"/>
      <point x="241" y="-12"/>
      <point x="245" y="-12"/>
      <point x="248" y="-12" type="curve" smooth="yes"/>
      <point x="250" y="-12"/>
      <point x="252" y="-12"/>
      <point x="254" y="-11" type="curve"/>
      <point x="261" y="-10"/>
      <point x="265" y="-5"/>
      <point x="267" y="2" type="curve"/>
      <point x="374" y="254" type="line"/>
      <point x="376" y="258"/>
      <point x="380" y="268"/>
      <point x="384" y="261" type="curve"/>
      <point x="492" y="0" type="line"/>
      <point x="494" y="-5" type="line" smooth="yes"/>
      <point x="496" y="-10"/>
      <point x="498" y="-12"/>
      <point x="504" y="-13" type="curve"/>
      <point x="510" y="-15"/>
      <point x="518" y="-12"/>
      <point x="523" y="-11" type="curve" smooth="yes"/>
      <point x="536" y="-9"/>
      <point x="536" y="-9"/>
      <point x="540" y="2" type="curve" smooth="yes"/>
      <point x="583" y="109"/>
      <point x="625" y="214"/>
      <point x="668" y="320" type="curve" smooth="yes"/>
      <point x="676" y="339"/>
      <point x="684" y="358"/>
      <point x="689" y="366" type="curve"/>
      <point x="700" y="381"/>
      <point x="713" y="383"/>
    </contour>
  </outline>
</glyph>
<glyph name="x" format="2">
  <advance width="522"/>
  <unicode hex="0078"/>
  <outline>
    <contour>
      <point x="511" y="10" type="curve" smooth="yes"/>
      <point x="511" y="17"/>
      <point x="508" y="25"/>
      <point x="503" y="28" type="curve"/>
      <point x="460" y="31"/>
      <point x="441" y="41"/>
      <point x="413" y="77" type="curve" smooth="yes"/>
      <point x="373" y="128"/>
      <point x="396" y="99"/>
      <point x="292" y="232" type="curve"/>
      <point x="339" y="286" type="line"/>
      <point x="377" y="328" type="line" smooth="yes"/>
      <point x="419" y="375"/>
      <point x="433" y="384"/>
      <point x="493" y="388" type="curve"/>
      <point x="500" y="388"/>
      <point x="505" y="386"/>
      <point x="508" y="394" type="curve" smooth="yes"/>
      <point x="510" y="399"/>
      <point x="509" y="407"/>
      <point x="507" y="412" type="curve"/>
      <point x="504" y="417"/>
      <point x="501" y="418"/>
      <point x="495" y="417" type="curve"/>
      <point x="454" y="415"/>
      <point x="381" y="416"/>
      <point x="305" y="417" type="curve"/>
      <point x="300" y="418"/>
      <point x="294" y="418"/>
      <point x="293" y="411" type="curve"/>
      <point x="292" y="406"/>
      <point x="292" y="398"/>
      <point x="294" y="393" type="curve" smooth="yes"/>
      <point x="297" y="386"/>
      <point x="300" y="389"/>
      <point x="306" y="388" type="curve"/>
      <point x="343" y="387"/>
      <point x="350" y="379"/>
      <point x="350" y="365" type="curve" smooth="yes"/>
      <point x="350" y="352"/>
      <point x="338" y="332"/>
      <point x="323" y="314" type="curve" smooth="yes"/>
      <point x="309" y="296"/>
      <point x="292" y="278"/>
      <point x="284" y="270" type="curve"/>
      <point x="274" y="258"/>
      <point x="270" y="259"/>
      <point x="262" y="270" type="curve"/>
      <point x="261" y="271"/>
      <point x="241" y="294"/>
      <point x="223" y="318" type="curve" smooth="yes"/>
      <point x="204" y="343"/>
      <point x="187" y="369"/>
      <point x="187" y="377" type="curve" smooth="yes"/>
      <point x="187" y="389"/>
      <point x="213" y="389"/>
      <point x="221" y="389" type="curve" smooth="yes"/>
      <point x="230" y="389" type="line" smooth="yes"/>
      <point x="235" y="389"/>
      <point x="237" y="407"/>
      <point x="231" y="415" type="curve"/>
      <point x="229" y="418"/>
      <point x="223" y="417"/>
      <point x="220" y="417" type="curve" smooth="yes"/>
      <point x="173" y="416"/>
      <point x="79" y="414"/>
      <point x="26" y="417" type="curve" smooth="yes"/>
      <point x="11" y="418"/>
      <point x="14" y="390"/>
      <point x="21" y="388" type="curve"/>
      <point x="78" y="385"/>
      <point x="90" y="376"/>
      <point x="138" y="312" type="curve" smooth="yes"/>
      <point x="221" y="201" type="line"/>
      <point x="132" y="100" type="line" smooth="yes"/>
      <point x="78" y="38"/>
      <point x="63" y="28"/>
      <point x="15" y="27" type="curve" smooth="yes"/>
      <point x="9" y="27"/>
      <point x="7" y="20"/>
      <point x="7" y="12" type="curve"/>
      <point x="8" y="5"/>
      <point x="11" y="-2"/>
      <point x="15" y="-2" type="curve" smooth="yes"/>
      <point x="63" y="-1"/>
      <point x="154" y="-1"/>
      <point x="206" y="-3" type="curve"/>
      <point x="216" y="-5"/>
      <point x="216" y="25"/>
      <point x="206" y="26" type="curve"/>
      <point x="198" y="26" type="line"/>
      <point x="155" y="30"/>
      <point x="144" y="38"/>
      <point x="144" y="55" type="curve" smooth="yes"/>
      <point x="144" y="74"/>
      <point x="218" y="150"/>
      <point x="234" y="168" type="curve" smooth="yes"/>
      <point x="240" y="175"/>
      <point x="250" y="167"/>
      <point x="257" y="158" type="curve" smooth="yes"/>
      <point x="314" y="82" type="line" smooth="yes"/>
      <point x="321" y="72"/>
      <point x="340" y="54"/>
      <point x="340" y="42" type="curve" smooth="yes"/>
      <point x="340" y="33"/>
      <point x="335" y="26"/>
      <point x="305" y="26" type="curve" smooth="yes"/>
      <point x="296" y="26" type="line" smooth="yes"/>
      <point x="284" y="26"/>
      <point x="284" y="-3"/>
      <point x="296" y="-3" type="curve" smooth="yes"/>
      <point x="355" y="-1"/>
      <point x="451" y="-1"/>
      <point x="502" y="-2" type="curve"/>
      <point x="507" y="-3"/>
      <point x="511" y="3"/>
    </contour>
  </outline>
</glyph>
<glyph name="braceright" format="2">
  <advance width="501"/>
  <unicode hex="007D"/>
  <outline>
    <contour>
      <point x="399" y="233" type="curve" smooth="yes"/>
      <point x="399" y="240"/>
      <point x="392" y="247"/>
      <point x="385" y="249" type="curve" smooth="yes"/>
      <point x="319" y="265"/>
      <point x="284" y="303"/>
      <point x="284" y="351" type="curve" smooth="yes"/>
      <point x="284" y="404"/>
      <point x="308" y="454"/>
      <point x="308" y="507" type="curve" smooth="yes"/>
      <point x="308" y="609"/>
      <point x="229" y="693"/>
      <point x="114" y="711" type="curve" smooth="yes"/>
      <point x="107" y="712"/>
      <point x="106" y="702"/>
      <point x="106" y="697" type="curve"/>
      <point x="104" y="688"/>
      <point x="114" y="681"/>
      <point x="118" y="680" type="curve" smooth="yes"/>
      <point x="189" y="660"/>
      <point x="223" y="618"/>
      <point x="223" y="562" type="curve" smooth="yes"/>
      <point x="223" y="508"/>
      <point x="203" y="454"/>
      <point x="203" y="402" type="curve" smooth="yes"/>
      <point x="203" y="334"/>
      <point x="245" y="277"/>
      <point x="320" y="239" type="curve" smooth="yes"/>
      <point x="328" y="235"/>
      <point x="329" y="228"/>
      <point x="321" y="224" type="curve"/>
      <point x="295" y="213"/>
      <point x="280" y="202"/>
      <point x="259" y="181" type="curve" smooth="yes"/>
      <point x="223" y="146"/>
      <point x="203" y="104"/>
      <point x="203" y="59" type="curve" smooth="yes"/>
      <point x="203" y="4"/>
      <point x="224" y="-48"/>
      <point x="224" y="-103" type="curve" smooth="yes"/>
      <point x="224" y="-160"/>
      <point x="186" y="-203"/>
      <point x="114" y="-218" type="curve" smooth="yes"/>
      <point x="110" y="-219"/>
      <point x="108" y="-222"/>
      <point x="107" y="-226" type="curve"/>
      <point x="107" y="-229"/>
      <point x="106" y="-234"/>
      <point x="106" y="-237" type="curve"/>
      <point x="104" y="-245"/>
      <point x="116" y="-249"/>
      <point x="125" y="-247" type="curve" smooth="yes"/>
      <point x="233" y="-227"/>
      <point x="309" y="-144"/>
      <point x="309" y="-44" type="curve" smooth="yes"/>
      <point x="309" y="-17"/>
      <point x="303" y="9"/>
      <point x="297" y="35" type="curve" smooth="yes"/>
      <point x="291" y="61"/>
      <point x="285" y="87"/>
      <point x="285" y="114" type="curve" smooth="yes"/>
      <point x="285" y="160"/>
      <point x="322" y="199"/>
      <point x="387" y="214" type="curve" smooth="yes"/>
      <point x="398" y="216"/>
      <point x="399" y="222"/>
    </contour>
  </outline>
</glyph>
<glyph name="yen" format="2">
  <advance width="523"/>
  <unicode hex="00A5"/>
  <outline>
    <contour>
      <point x="528" y="674" type="curve" smooth="yes"/>
      <point x="528" y="675"/>
      <point x="528" y="676"/>
      <point x="528" y="678" type="curve" smooth="yes"/>
      <point x="528" y="690" type="line" smooth="yes"/>
      <point x="528" y="693"/>
      <point x="525" y="703"/>
      <point x="518" y="702" type="curve"/>
      <point x="477" y="699"/>
      <point x="397" y="699"/>
      <point x="354" y="701" type="curve" smooth="yes"/>
      <point x="353" y="701"/>
      <point x="351" y="701"/>
      <point x="350" y="701" type="curve" smooth="yes"/>
      <point x="344" y="701"/>
      <point x="339" y="698"/>
      <point x="339" y="692" type="curve" smooth="yes"/>
      <point x="339" y="681" type="line" smooth="yes"/>
      <point x="339" y="671"/>
      <point x="354" y="669"/>
      <point x="360" y="668" type="curve"/>
      <point x="389" y="666"/>
      <point x="397" y="658"/>
      <point x="397" y="644" type="curve" smooth="yes"/>
      <point x="397" y="637"/>
      <point x="394" y="626"/>
      <point x="387" y="608" type="curve" smooth="yes"/>
      <point x="365" y="554" type="line" smooth="yes"/>
      <point x="362" y="546"/>
      <point x="353" y="542"/>
      <point x="346" y="542" type="curve" smooth="yes"/>
      <point x="233" y="542" type="line" smooth="yes"/>
      <point x="224" y="542"/>
      <point x="210" y="545"/>
      <point x="207" y="552" type="curve" smooth="yes"/>
      <point x="181" y="616" type="line" smooth="yes"/>
      <point x="175" y="631"/>
      <point x="172" y="640"/>
      <point x="172" y="643" type="curve" smooth="yes"/>
      <point x="172" y="656"/>
      <point x="184" y="666"/>
      <point x="227" y="669" type="curve"/>
      <point x="228" y="669"/>
      <point x="229" y="669"/>
      <point x="230" y="669" type="curve"/>
      <point x="234" y="670"/>
      <point x="235" y="675"/>
      <point x="235" y="679" type="curve"/>
      <point x="238" y="683"/>
      <point x="236" y="688"/>
      <point x="235" y="691" type="curve"/>
      <point x="235" y="698"/>
      <point x="232" y="705"/>
      <point x="224" y="705" type="curve"/>
      <point x="167" y="702"/>
      <point x="61" y="702"/>
      <point x="7" y="704" type="curve" smooth="yes"/>
      <point x="2" y="704"/>
      <point x="-3" y="702"/>
      <point x="-2" y="695" type="curve"/>
      <point x="-2" y="694"/>
      <point x="-3" y="692"/>
      <point x="-3" y="688" type="curve" smooth="yes"/>
      <point x="-3" y="685"/>
      <point x="-3" y="681"/>
      <point x="-1" y="679" type="curve"/>
      <point x="0" y="672"/>
      <point x="1" y="669"/>
      <point x="7" y="669" type="curve"/>
      <point x="44" y="667"/>
      <point x="61" y="652"/>
      <point x="83" y="599" type="curve" smooth="yes"/>
      <point x="102" y="554" type="line"/>
      <point x="105" y="548"/>
      <point x="93" y="542"/>
      <point x="88" y="542" type="curve" smooth="yes"/>
      <point x="16" y="542" type="line" smooth="yes"/>
      <point x="7" y="542"/>
      <point x="-1" y="541"/>
      <point x="-1" y="529" type="curve" smooth="yes"/>
      <point x="-1" y="506" type="line" smooth="yes"/>
      <point x="-1" y="495"/>
      <point x="5" y="492"/>
      <point x="14" y="492" type="curve" smooth="yes"/>
      <point x="118" y="492" type="line" smooth="yes"/>
      <point x="126" y="492"/>
      <point x="130" y="487"/>
      <point x="134" y="478" type="curve" smooth="yes"/>
      <point x="161" y="414" type="line" smooth="yes"/>
      <point x="166" y="401"/>
      <point x="151" y="399"/>
      <point x="142" y="399" type="curve" smooth="yes"/>
      <point x="19" y="401" type="line" smooth="yes"/>
      <point x="6" y="401"/>
      <point x="-1" y="400"/>
      <point x="-1" y="390" type="curve" smooth="yes"/>
      <point x="-1" y="366" type="line" smooth="yes"/>
      <point x="-1" y="353"/>
      <point x="8" y="350"/>
      <point x="17" y="350" type="curve" smooth="yes"/>
      <point x="171" y="350" type="line" smooth="yes"/>
      <point x="173" y="350"/>
      <point x="176" y="350"/>
      <point x="178" y="350" type="curve" smooth="yes"/>
      <point x="185" y="350"/>
      <point x="189" y="347"/>
      <point x="192" y="340" type="curve" smooth="yes"/>
      <point x="214" y="291" type="line"/>
      <point x="214" y="126" type="line" smooth="yes"/>
      <point x="214" y="37"/>
      <point x="205" y="30"/>
      <point x="148" y="30" type="curve" smooth="yes"/>
      <point x="139" y="30" type="line" smooth="yes"/>
      <point x="130" y="30"/>
      <point x="127" y="27"/>
      <point x="126" y="19" type="curve" smooth="yes"/>
      <point x="125" y="6" type="line"/>
      <point x="124" y="0"/>
      <point x="130" y="-4"/>
      <point x="138" y="-4" type="curve"/>
      <point x="190" y="-1"/>
      <point x="308" y="0"/>
      <point x="382" y="-4" type="curve" smooth="yes"/>
      <point x="397" y="-5"/>
      <point x="398" y="-5"/>
      <point x="398" y="6" type="curve" smooth="yes"/>
      <point x="398" y="18" type="line" smooth="yes"/>
      <point x="398" y="26"/>
      <point x="393" y="31"/>
      <point x="383" y="31" type="curve" smooth="yes"/>
      <point x="372" y="31" type="line" smooth="yes"/>
      <point x="322" y="31"/>
      <point x="311" y="42"/>
      <point x="311" y="126" type="curve" smooth="yes"/>
      <point x="311" y="302" type="line"/>
      <point x="329" y="343" type="line" smooth="yes"/>
      <point x="331" y="347"/>
      <point x="334" y="349"/>
      <point x="339" y="349" type="curve"/>
      <point x="345" y="350"/>
      <point x="351" y="350"/>
      <point x="359" y="350" type="curve" smooth="yes"/>
      <point x="507" y="349" type="line" smooth="yes"/>
      <point x="520" y="349"/>
      <point x="527" y="354"/>
      <point x="527" y="363" type="curve" smooth="yes"/>
      <point x="527" y="388" type="line" smooth="yes"/>
      <point x="527" y="397"/>
      <point x="521" y="399"/>
      <point x="514" y="401" type="curve"/>
      <point x="377" y="399" type="line" smooth="yes"/>
      <point x="367" y="399"/>
      <point x="357" y="405"/>
      <point x="361" y="414" type="curve" smooth="yes"/>
      <point x="392" y="482" type="line" smooth="yes"/>
      <point x="395" y="489"/>
      <point x="401" y="492"/>
      <point x="409" y="492" type="curve" smooth="yes"/>
      <point x="512" y="492" type="line" smooth="yes"/>
      <point x="523" y="492"/>
      <point x="527" y="497"/>
      <point x="527" y="508" type="curve" smooth="yes"/>
      <point x="527" y="528" type="line" smooth="yes"/>
      <point x="527" y="534"/>
      <point x="523" y="542"/>
      <point x="512" y="542" type="curve" smooth="yes"/>
      <point x="437" y="542" type="line" smooth="yes"/>
      <point x="419" y="542"/>
      <point x="419" y="548"/>
      <point x="421" y="552" type="curve"/>
      <point x="439" y="594" type="line" smooth="yes"/>
      <point x="466" y="657"/>
      <point x="483" y="669"/>
      <point x="519" y="669" type="curve" smooth="yes"/>
      <point x="522" y="669"/>
      <point x="528" y="670"/>
    </contour>
    <contour>
      <point x="332" y="480" type="curve" smooth="yes"/>
      <point x="293" y="383" type="line" smooth="yes"/>
      <point x="288" y="372"/>
      <point x="281" y="374"/>
      <point x="278" y="381" type="curve" smooth="yes"/>
      <point x="237" y="481" type="line" smooth="yes"/>
      <point x="233" y="490"/>
      <point x="237" y="492"/>
      <point x="245" y="492" type="curve" smooth="yes"/>
      <point x="326" y="492" type="line" smooth="yes"/>
      <point x="334" y="492"/>
      <point x="335" y="488"/>
    </contour>
  </outline>
</glyph>
<glyph name="logicalnot" format="2">
  <advance width="698"/>
  <unicode hex="00AC"/>
  <outline>
    <contour>
      <point x="630" y="182" type="line"/>
      <point x="630" y="497" type="line"/>
      <point x="71" y="497" type="line"/>
      <point x="71" y="430" type="line"/>
      <point x="564" y="430" type="line"/>
      <point x="564" y="182" type="line"/>
    </contour>
  </outline>
</glyph>
<glyph name="Acircumflex" format="2">
  <advance width="711"/>
  <unicode hex="00C2"/>
  <outline>
    <contour>
      <point x="494" y="709" type="curve" smooth="yes"/>
      <point x="406" y="861" type="line"/>
      <point x="402" y="869"/>
      <point x="399" y="870"/>
      <point x="389" y="871" type="curve" smooth="yes"/>
      <point x="376" y="872"/>
      <point x="322" y="871"/>
      <point x="314" y="870" type="curve"/>
      <point x="309" y="868"/>
      <point x="304" y="865"/>
      <point x="301" y="860" type="curve" smooth="yes"/>
      <point x="212" y="704" type="line"/>
      <point x="208" y="696"/>
      <point x="228" y="691"/>
      <point x="236" y="698" type="curve" smooth="yes"/>
      <point x="351" y="802" type="line"/>
      <point x="473" y="698" type="line"/>
      <point x="476" y="695"/>
      <point x="486" y="694"/>
      <point x="493" y="696" type="curve"/>
      <point x="499" y="697"/>
      <point x="497" y="704"/>
    </contour>
    <contour>
      <point x="682" y="-4" type="curve" smooth="yes"/>
      <point x="695" y="-5"/>
      <point x="694" y="30"/>
      <point x="682" y="30" type="curve" smooth="yes"/>
      <point x="675" y="30" type="line" smooth="yes"/>
      <point x="629" y="30"/>
      <point x="620" y="43"/>
      <point x="603" y="89" type="curve" smooth="yes"/>
      <point x="594" y="115"/>
      <point x="584" y="141"/>
      <point x="574" y="167" type="curve" smooth="yes"/>
      <point x="552" y="225"/>
      <point x="505" y="351"/>
      <point x="387" y="662" type="curve"/>
      <point x="380" y="674"/>
      <point x="348" y="672"/>
      <point x="336" y="672" type="curve" smooth="yes"/>
      <point x="330" y="672"/>
      <point x="295" y="674"/>
      <point x="298" y="664" type="curve" smooth="yes"/>
      <point x="305" y="638" type="line"/>
      <point x="117" y="127" type="line" smooth="yes"/>
      <point x="113" y="116"/>
      <point x="108" y="101"/>
      <point x="102" y="86" type="curve" smooth="yes"/>
      <point x="95" y="70"/>
      <point x="88" y="56"/>
      <point x="81" y="48" type="curve" smooth="yes"/>
      <point x="67" y="32"/>
      <point x="43" y="33"/>
      <point x="24" y="33" type="curve" smooth="yes"/>
      <point x="19" y="33"/>
      <point x="15" y="32"/>
      <point x="14" y="27" type="curve" smooth="yes"/>
      <point x="12" y="18"/>
      <point x="11" y="-1"/>
      <point x="23" y="-3" type="curve"/>
      <point x="27" y="-3"/>
      <point x="30" y="-3"/>
      <point x="34" y="-3" type="curve"/>
      <point x="88" y="0"/>
      <point x="191" y="-2"/>
      <point x="251" y="-3" type="curve" smooth="yes"/>
      <point x="254" y="-3"/>
      <point x="257" y="6"/>
      <point x="258" y="14" type="curve"/>
      <point x="258" y="22"/>
      <point x="256" y="32"/>
      <point x="251" y="33" type="curve"/>
      <point x="235" y="35"/>
      <point x="229" y="32"/>
      <point x="215" y="32" type="curve" smooth="yes"/>
      <point x="171" y="34"/>
      <point x="157" y="42"/>
      <point x="157" y="59" type="curve" smooth="yes"/>
      <point x="157" y="68"/>
      <point x="161" y="81"/>
      <point x="166" y="93" type="curve" smooth="yes"/>
      <point x="182" y="133"/>
      <point x="214" y="218"/>
      <point x="229" y="266" type="curve"/>
      <point x="235" y="274"/>
      <point x="238" y="283"/>
      <point x="250" y="283" type="curve" smooth="yes"/>
      <point x="289" y="282"/>
      <point x="367" y="281"/>
      <point x="406" y="283" type="curve"/>
      <point x="415" y="284"/>
      <point x="431" y="278"/>
      <point x="434" y="270" type="curve" smooth="yes"/>
      <point x="458" y="206"/>
      <point x="478" y="151"/>
      <point x="502" y="87" type="curve" smooth="yes"/>
      <point x="516" y="50"/>
      <point x="508" y="35"/>
      <point x="467" y="33" type="curve" smooth="yes"/>
      <point x="455" y="32"/>
      <point x="440" y="33"/>
      <point x="420" y="33" type="curve" smooth="yes"/>
      <point x="409" y="33"/>
      <point x="402" y="32"/>
      <point x="402" y="17" type="curve" smooth="yes"/>
      <point x="402" y="13"/>
      <point x="402" y="8"/>
      <point x="403" y="5" type="curve" smooth="yes"/>
      <point x="405" y="-1"/>
      <point x="408" y="-3"/>
      <point x="415" y="-3" type="curve" smooth="yes"/>
      <point x="485" y="-1"/>
      <point x="617" y="-1"/>
    </contour>
    <contour>
      <point x="402" y="355" type="curve" smooth="yes"/>
      <point x="405" y="347"/>
      <point x="400" y="340"/>
      <point x="394" y="340" type="curve" smooth="yes"/>
      <point x="365" y="339"/>
      <point x="305" y="339"/>
      <point x="273" y="340" type="curve"/>
      <point x="266" y="343"/>
      <point x="259" y="345"/>
      <point x="261" y="355" type="curve"/>
      <point x="278" y="399"/>
      <point x="312" y="489"/>
      <point x="328" y="540" type="curve"/>
      <point x="331" y="547"/>
      <point x="340" y="544"/>
      <point x="341" y="537" type="curve"/>
      <point x="356" y="488"/>
      <point x="386" y="399"/>
    </contour>
  </outline>
</glyph>
<glyph name="Oacute" format="2">
  <advance width="827"/>
  <unicode hex="00D3"/>
  <outline>
    <contour>
      <point x="543" y="875" type="curve"/>
      <point x="545" y="883"/>
      <point x="537" y="885"/>
      <point x="529" y="885" type="curve" smooth="yes"/>
      <point x="441" y="884" type="line" smooth="yes"/>
      <point x="434" y="884"/>
      <point x="425" y="879"/>
      <point x="423" y="871" type="curve" smooth="yes"/>
      <point x="374" y="707" type="line" smooth="yes"/>
      <point x="369" y="691"/>
      <point x="393" y="691"/>
      <point x="399" y="698" type="curve" smooth="yes"/>
      <point x="542" y="870" type="line"/>
      <point x="543" y="871"/>
      <point x="543" y="873"/>
    </contour>
    <contour>
      <point x="769" y="339" type="curve" smooth="yes"/>
      <point x="769" y="527"/>
      <point x="624" y="667"/>
      <point x="415" y="667" type="curve" smooth="yes"/>
      <point x="202" y="667"/>
      <point x="53" y="515"/>
      <point x="53" y="312" type="curve" smooth="yes"/>
      <point x="53" y="125"/>
      <point x="204" y="-19"/>
      <point x="413" y="-19" type="curve" smooth="yes"/>
      <point x="619" y="-19"/>
      <point x="769" y="138"/>
    </contour>
    <contour>
      <point x="661" y="309" type="curve" smooth="yes"/>
      <point x="661" y="157"/>
      <point x="606" y="18"/>
      <point x="430" y="18" type="curve" smooth="yes"/>
      <point x="272" y="18"/>
      <point x="161" y="157"/>
      <point x="161" y="338" type="curve" smooth="yes"/>
      <point x="161" y="510"/>
      <point x="249" y="631"/>
      <point x="387" y="631" type="curve" smooth="yes"/>
      <point x="552" y="631"/>
      <point x="661" y="496"/>
    </contour>
  </outline>
</glyph>
<glyph name="Ocircumflex" format="2">
  <advance width="827"/>
  <unicode hex="00D4"/>
  <outline>
    <contour>
      <point x="569" y="696" type="curve"/>
      <point x="575" y="697"/>
      <point x="572" y="704"/>
      <point x="569" y="709" type="curve" smooth="yes"/>
      <point x="482" y="861" type="line" smooth="yes"/>
      <point x="477" y="869"/>
      <point x="475" y="870"/>
      <point x="465" y="871" type="curve" smooth="yes"/>
      <point x="452" y="872"/>
      <point x="397" y="871"/>
      <point x="390" y="870" type="curve"/>
      <point x="385" y="868"/>
      <point x="380" y="865"/>
      <point x="377" y="860" type="curve" smooth="yes"/>
      <point x="288" y="704" type="line"/>
      <point x="284" y="696"/>
      <point x="304" y="691"/>
      <point x="312" y="698" type="curve" smooth="yes"/>
      <point x="427" y="802" type="line"/>
      <point x="549" y="698" type="line"/>
      <point x="551" y="695"/>
      <point x="562" y="694"/>
    </contour>
    <contour>
      <point x="769" y="339" type="curve" smooth="yes"/>
      <point x="769" y="527"/>
      <point x="623" y="667"/>
      <point x="414" y="667" type="curve" smooth="yes"/>
      <point x="202" y="667"/>
      <point x="53" y="515"/>
      <point x="53" y="312" type="curve" smooth="yes"/>
      <point x="53" y="125"/>
      <point x="203" y="-19"/>
      <point x="412" y="-19" type="curve" smooth="yes"/>
      <point x="619" y="-19"/>
      <point x="769" y="138"/>
    </contour>
    <contour>
      <point x="661" y="309" type="curve" smooth="yes"/>
      <point x="661" y="157"/>
      <point x="606" y="18"/>
      <point x="430" y="18" type="curve" smooth="yes"/>
      <point x="272" y="18"/>
      <point x="161" y="157"/>
      <point x="161" y="338" type="curve" smooth="yes"/>
      <point x="161" y="510"/>
      <point x="249" y="631"/>
      <point x="387" y="631" type="curve" smooth="yes"/>
      <point x="552" y="631"/>
      <point x="661" y="496"/>
    </contour>
  </outline>
</glyph>
<glyph name="Ucircumflex" format="2">
  <advance width="815"/>
  <unicode hex="00DB"/>
  <outline>
    <contour>
      <point x="554" y="709" type="curve" smooth="yes"/>
      <point x="466" y="861" type="line"/>
      <point x="462" y="869"/>
      <point x="460" y="870"/>
      <point x="450" y="871" type="curve" smooth="yes"/>
      <point x="436" y="872"/>
      <point x="382" y="871"/>
      <point x="374" y="870" type="curve"/>
      <point x="369" y="868"/>
      <point x="364" y="865"/>
      <point x="361" y="860" type="curve" smooth="yes"/>
      <point x="273" y="704" type="line" smooth="yes"/>
      <point x="268" y="696"/>
      <point x="289" y="691"/>
      <point x="296" y="698" type="curve"/>
      <point x="411" y="802" type="line"/>
      <point x="533" y="698" type="line"/>
      <point x="536" y="695"/>
      <point x="546" y="694"/>
      <point x="553" y="696" type="curve"/>
      <point x="559" y="697"/>
      <point x="557" y="704"/>
    </contour>
    <contour>
      <point x="793" y="635" type="curve" smooth="yes"/>
      <point x="793" y="642"/>
      <point x="790" y="650"/>
      <point x="784" y="650" type="curve" smooth="yes"/>
      <point x="722" y="651"/>
      <point x="588" y="651"/>
      <point x="537" y="650" type="curve" smooth="yes"/>
      <point x="522" y="650"/>
      <point x="527" y="619"/>
      <point x="537" y="619" type="curve"/>
      <point x="544" y="617" type="line"/>
      <point x="622" y="615"/>
      <point x="634" y="596"/>
      <point x="634" y="485" type="curve" smooth="yes"/>
      <point x="634" y="304" type="line" smooth="yes"/>
      <point x="634" y="256"/>
      <point x="635" y="211"/>
      <point x="618" y="166" type="curve" smooth="yes"/>
      <point x="590" y="91"/>
      <point x="532" y="47"/>
      <point x="425" y="47" type="curve" smooth="yes"/>
      <point x="259" y="47"/>
      <point x="215" y="164"/>
      <point x="215" y="310" type="curve" smooth="yes"/>
      <point x="215" y="431"/>
      <point x="215" y="481"/>
      <point x="215" y="505" type="curve" smooth="yes"/>
      <point x="215" y="520"/>
      <point x="216" y="534"/>
      <point x="216" y="549" type="curve" smooth="yes"/>
      <point x="218" y="603"/>
      <point x="233" y="618"/>
      <point x="292" y="618" type="curve" smooth="yes"/>
      <point x="302" y="618" type="line"/>
      <point x="312" y="616"/>
      <point x="316" y="650"/>
      <point x="302" y="650" type="curve" smooth="yes"/>
      <point x="219" y="652"/>
      <point x="60" y="652"/>
      <point x="32" y="650" type="curve" smooth="yes"/>
      <point x="18" y="649"/>
      <point x="22" y="618"/>
      <point x="32" y="618" type="curve" smooth="yes"/>
      <point x="107" y="617"/>
      <point x="118" y="610"/>
      <point x="118" y="555" type="curve" smooth="yes"/>
      <point x="118" y="295" type="line" smooth="yes"/>
      <point x="118" y="198"/>
      <point x="121" y="176"/>
      <point x="141" y="131" type="curve" smooth="yes"/>
      <point x="185" y="35"/>
      <point x="266" y="-19"/>
      <point x="402" y="-19" type="curve" smooth="yes"/>
      <point x="500" y="-19"/>
      <point x="551" y="4"/>
      <point x="608" y="55" type="curve" smooth="yes"/>
      <point x="691" y="128"/>
      <point x="692" y="201"/>
      <point x="692" y="305" type="curve" smooth="yes"/>
      <point x="692" y="489" type="line" smooth="yes"/>
      <point x="692" y="597"/>
      <point x="707" y="616"/>
      <point x="784" y="619" type="curve"/>
      <point x="790" y="620"/>
      <point x="793" y="628"/>
    </contour>
  </outline>
</glyph>
<glyph name="Udieresis" format="2">
  <advance width="815"/>
  <unicode hex="00DC"/>
  <outline>
    <contour>
      <point x="563" y="764" type="curve" smooth="yes"/>
      <point x="563" y="797"/>
      <point x="537" y="824"/>
      <point x="503" y="824" type="curve" smooth="yes"/>
      <point x="470" y="824"/>
      <point x="442" y="797"/>
      <point x="442" y="764" type="curve" smooth="yes"/>
      <point x="442" y="731"/>
      <point x="470" y="704"/>
      <point x="503" y="704" type="curve" smooth="yes"/>
      <point x="537" y="704"/>
      <point x="563" y="731"/>
    </contour>
    <contour>
      <point x="386" y="764" type="curve" smooth="yes"/>
      <point x="386" y="797"/>
      <point x="359" y="824"/>
      <point x="326" y="824" type="curve" smooth="yes"/>
      <point x="292" y="824"/>
      <point x="265" y="797"/>
      <point x="265" y="764" type="curve" smooth="yes"/>
      <point x="265" y="730"/>
      <point x="293" y="704"/>
      <point x="326" y="704" type="curve" smooth="yes"/>
      <point x="359" y="704"/>
      <point x="386" y="730"/>
    </contour>
    <contour>
      <point x="793" y="635" type="curve" smooth="yes"/>
      <point x="793" y="642"/>
      <point x="790" y="650"/>
      <point x="784" y="650" type="curve" smooth="yes"/>
      <point x="722" y="651"/>
      <point x="588" y="651"/>
      <point x="537" y="650" type="curve" smooth="yes"/>
      <point x="522" y="650"/>
      <point x="527" y="619"/>
      <point x="537" y="619" type="curve"/>
      <point x="544" y="617" type="line"/>
      <point x="622" y="615"/>
      <point x="634" y="596"/>
      <point x="634" y="485" type="curve" smooth="yes"/>
      <point x="634" y="304" type="line" smooth="yes"/>
      <point x="634" y="256"/>
      <point x="635" y="211"/>
      <point x="618" y="166" type="curve" smooth="yes"/>
      <point x="590" y="91"/>
      <point x="532" y="47"/>
      <point x="425" y="47" type="curve" smooth="yes"/>
      <point x="259" y="47"/>
      <point x="215" y="164"/>
      <point x="215" y="310" type="curve" smooth="yes"/>
      <point x="215" y="431"/>
      <point x="215" y="481"/>
      <point x="215" y="505" type="curve" smooth="yes"/>
      <point x="215" y="520"/>
      <point x="216" y="534"/>
      <point x="216" y="549" type="curve" smooth="yes"/>
      <point x="218" y="603"/>
      <point x="233" y="618"/>
      <point x="292" y="618" type="curve" smooth="yes"/>
      <point x="302" y="618" type="line"/>
      <point x="312" y="616"/>
      <point x="316" y="650"/>
      <point x="302" y="650" type="curve" smooth="yes"/>
      <point x="219" y="652"/>
      <point x="60" y="652"/>
      <point x="32" y="650" type="curve" smooth="yes"/>
      <point x="18" y="649"/>
      <point x="22" y="618"/>
      <point x="32" y="618" type="curve" smooth="yes"/>
      <point x="107" y="617"/>
      <point x="118" y="610"/>
      <point x="118" y="555" type="curve" smooth="yes"/>
      <point x="118" y="295" type="line" smooth="yes"/>
      <point x="118" y="198"/>
      <point x="121" y="176"/>
      <point x="141" y="131" type="curve" smooth="yes"/>
      <point x="185" y="35"/>
      <point x="266" y="-19"/>
      <point x="402" y="-19" type="curve" smooth="yes"/>
      <point x="500" y="-19"/>
      <point x="551" y="4"/>
      <point x="608" y="55" type="curve" smooth="yes"/>
      <point x="691" y="128"/>
      <point x="692" y="201"/>
      <point x="692" y="305" type="curve" smooth="yes"/>
      <point x="692" y="489" type="line" smooth="yes"/>
      <point x="692" y="597"/>
      <point x="707" y="616"/>
      <point x="784" y="619" type="curve"/>
      <point x="790" y="620"/>
      <point x="793" y="628"/>
    </contour>
  </outline>
</glyph>
<glyph name="atilde" format="2">
  <advance width="414"/>
  <unicode hex="00E3"/>
  <outline>
    <contour>
      <point x="397" y="46" type="curve"/>
      <point x="400" y="54"/>
      <point x="401" y="69"/>
      <point x="390" y="71" type="curve"/>
      <point x="385" y="71"/>
      <point x="384" y="70"/>
      <point x="381" y="68" type="curve"/>
      <point x="371" y="59"/>
      <point x="363" y="55"/>
      <point x="357" y="53" type="curve"/>
      <point x="351" y="50"/>
      <point x="346" y="50"/>
      <point x="339" y="50" type="curve" smooth="yes"/>
      <point x="325" y="50"/>
      <point x="317" y="57"/>
      <point x="317" y="99" type="curve" smooth="yes"/>
      <point x="317" y="281" type="line" smooth="yes"/>
      <point x="317" y="344"/>
      <point x="316" y="352"/>
      <point x="300" y="374" type="curve" smooth="yes"/>
      <point x="277" y="407"/>
      <point x="231" y="431"/>
      <point x="188" y="431" type="curve" smooth="yes"/>
      <point x="156" y="431"/>
      <point x="131" y="420"/>
      <point x="94" y="390" type="curve" smooth="yes"/>
      <point x="55" y="360"/>
      <point x="31" y="330"/>
      <point x="31" y="305" type="curve" smooth="yes"/>
      <point x="31" y="286"/>
      <point x="37" y="284"/>
      <point x="54" y="290" type="curve"/>
      <point x="61" y="292"/>
      <point x="107" y="312"/>
      <point x="114" y="320" type="curve"/>
      <point x="110" y="329"/>
      <point x="111" y="335"/>
      <point x="111" y="344" type="curve" smooth="yes"/>
      <point x="111" y="367"/>
      <point x="147" y="389"/>
      <point x="168" y="389" type="curve" smooth="yes"/>
      <point x="210" y="389"/>
      <point x="235" y="357"/>
      <point x="236" y="299" type="curve" smooth="yes"/>
      <point x="237" y="235" type="line" smooth="yes"/>
      <point x="237" y="225"/>
      <point x="229" y="219"/>
      <point x="226" y="217" type="curve"/>
      <point x="192" y="201"/>
      <point x="167" y="190"/>
      <point x="131" y="180" type="curve" smooth="yes"/>
      <point x="62" y="162"/>
      <point x="25" y="129"/>
      <point x="25" y="78" type="curve" smooth="yes"/>
      <point x="25" y="25"/>
      <point x="65" y="-12"/>
      <point x="122" y="-12" type="curve" smooth="yes"/>
      <point x="160" y="-12"/>
      <point x="181" y="-2"/>
      <point x="224" y="35" type="curve"/>
      <point x="227" y="37"/>
      <point x="237" y="49"/>
      <point x="239" y="40" type="curve" smooth="yes"/>
      <point x="245" y="5"/>
      <point x="262" y="-12"/>
      <point x="291" y="-12" type="curve" smooth="yes"/>
      <point x="316" y="-12"/>
      <point x="356" y="10"/>
    </contour>
    <contour>
      <point x="236" y="89" type="line"/>
      <point x="228" y="66"/>
      <point x="177" y="36"/>
      <point x="157" y="36" type="curve" smooth="yes"/>
      <point x="126" y="36"/>
      <point x="102" y="60"/>
      <point x="102" y="91" type="curve" smooth="yes"/>
      <point x="102" y="118"/>
      <point x="116" y="136"/>
      <point x="156" y="152" type="curve" smooth="yes"/>
      <point x="180" y="162"/>
      <point x="204" y="172"/>
      <point x="227" y="183" type="curve" smooth="yes"/>
      <point x="236" y="187"/>
      <point x="236" y="176"/>
      <point x="236" y="172" type="curve" smooth="yes"/>
    </contour>
    <contour>
      <point x="358" y="593" type="curve" smooth="yes"/>
      <point x="358" y="596"/>
      <point x="358" y="600"/>
      <point x="356" y="606" type="curve"/>
      <point x="356" y="610"/>
      <point x="350" y="613"/>
      <point x="344" y="612" type="curve"/>
      <point x="338" y="612"/>
      <point x="331" y="610"/>
      <point x="331" y="606" type="curve"/>
      <point x="323" y="552"/>
      <point x="312" y="540"/>
      <point x="291" y="540" type="curve" smooth="yes"/>
      <point x="279" y="540"/>
      <point x="263" y="546"/>
      <point x="232" y="567" type="curve" smooth="yes"/>
      <point x="187" y="598"/>
      <point x="164" y="607"/>
      <point x="134" y="607" type="curve" smooth="yes"/>
      <point x="73" y="607"/>
      <point x="40" y="558"/>
      <point x="36" y="472" type="curve"/>
      <point x="38" y="459"/>
      <point x="59" y="464"/>
      <point x="63" y="472" type="curve"/>
      <point x="64" y="482"/>
      <point x="66" y="486"/>
      <point x="66" y="490" type="curve"/>
      <point x="74" y="526"/>
      <point x="84" y="537"/>
      <point x="103" y="537" type="curve" smooth="yes"/>
      <point x="116" y="537"/>
      <point x="125" y="534"/>
      <point x="162" y="508" type="curve" smooth="yes"/>
      <point x="200" y="482"/>
      <point x="232" y="469"/>
      <point x="259" y="469" type="curve" smooth="yes"/>
      <point x="317" y="469"/>
      <point x="358" y="522"/>
    </contour>
  </outline>
</glyph>
<glyph name="Lslash" format="2">
  <advance width="578"/>
  <unicode hex="0141"/>
  <outline>
    <contour>
      <point x="572" y="137" type="curve" smooth="yes"/>
      <point x="582" y="157"/>
      <point x="580" y="159"/>
      <point x="566" y="159" type="curve" smooth="yes"/>
      <point x="548" y="159" type="line"/>
      <point x="514" y="113" type="line" smooth="yes"/>
      <point x="465" y="46"/>
      <point x="456" y="44"/>
      <point x="382" y="44" type="curve" smooth="yes"/>
      <point x="286" y="44" type="line" smooth="yes"/>
      <point x="240" y="44"/>
      <point x="218" y="45"/>
      <point x="218" y="99" type="curve" smooth="yes"/>
      <point x="218" y="310" type="line" smooth="yes"/>
      <point x="218" y="325"/>
      <point x="228" y="340"/>
      <point x="235" y="346" type="curve" smooth="yes"/>
      <point x="344" y="438" type="line"/>
      <point x="344" y="509" type="line" smooth="yes"/>
      <point x="344" y="521"/>
      <point x="339" y="532"/>
      <point x="329" y="523" type="curve" smooth="yes"/>
      <point x="236" y="445" type="line"/>
      <point x="228" y="444"/>
      <point x="218" y="446"/>
      <point x="218" y="461" type="curve" smooth="yes"/>
      <point x="218" y="564" type="line" smooth="yes"/>
      <point x="218" y="617"/>
      <point x="223" y="619"/>
      <point x="298" y="621" type="curve" smooth="yes"/>
      <point x="309" y="621"/>
      <point x="318" y="622"/>
      <point x="324" y="622" type="curve"/>
      <point x="364" y="625"/>
      <point x="345" y="659"/>
      <point x="333" y="659" type="curve" smooth="yes"/>
      <point x="291" y="659"/>
      <point x="90" y="663"/>
      <point x="43" y="661" type="curve"/>
      <point x="32" y="659"/>
      <point x="27" y="656"/>
      <point x="25" y="652" type="curve" smooth="yes"/>
      <point x="24" y="650"/>
      <point x="23" y="648"/>
      <point x="23" y="645" type="curve" smooth="yes"/>
      <point x="23" y="642"/>
      <point x="24" y="639"/>
      <point x="24" y="636" type="curve"/>
      <point x="25" y="625"/>
      <point x="35" y="623"/>
      <point x="44" y="623" type="curve" smooth="yes"/>
      <point x="103" y="623"/>
      <point x="121" y="610"/>
      <point x="121" y="555" type="curve" smooth="yes"/>
      <point x="121" y="350" type="line"/>
      <point x="-3" y="246" type="line"/>
      <point x="-3" y="173" type="line" smooth="yes"/>
      <point x="-3" y="148"/>
      <point x="12" y="160"/>
      <point x="18" y="166" type="curve"/>
      <point x="103" y="236" type="line" smooth="yes"/>
      <point x="120" y="250"/>
      <point x="121" y="240"/>
      <point x="121" y="221" type="curve" smooth="yes"/>
      <point x="121" y="137" type="line" smooth="yes"/>
      <point x="121" y="115"/>
      <point x="121" y="97"/>
      <point x="121" y="84" type="curve"/>
      <point x="120" y="70"/>
      <point x="118" y="60"/>
      <point x="114" y="52" type="curve" smooth="yes"/>
      <point x="106" y="37"/>
      <point x="87" y="33"/>
      <point x="47" y="33" type="curve" smooth="yes"/>
      <point x="27" y="33"/>
      <point x="17" y="31"/>
      <point x="17" y="8" type="curve"/>
      <point x="21" y="-4"/>
      <point x="34" y="-10"/>
      <point x="44" y="-7" type="curve"/>
      <point x="94" y="-3"/>
      <point x="362" y="-5"/>
      <point x="468" y="-5" type="curve" smooth="yes"/>
      <point x="489" y="-5"/>
      <point x="498" y="1"/>
      <point x="502" y="8" type="curve" smooth="yes"/>
      <point x="538" y="79"/>
      <point x="561" y="117"/>
    </contour>
  </outline>
</glyph>
<glyph name="circumflex" format="2">
  <advance width="349"/>
  <unicode hex="02C6"/>
  <outline>
    <contour>
      <point x="313" y="486" type="curve"/>
      <point x="225" y="638" type="line" smooth="yes"/>
      <point x="220" y="646"/>
      <point x="218" y="647"/>
      <point x="208" y="648" type="curve" smooth="yes"/>
      <point x="195" y="649"/>
      <point x="143" y="648"/>
      <point x="136" y="647" type="curve"/>
      <point x="131" y="645"/>
      <point x="126" y="642"/>
      <point x="123" y="637" type="curve" smooth="yes"/>
      <point x="34" y="481" type="line"/>
      <point x="30" y="473"/>
      <point x="46" y="464"/>
      <point x="58" y="475" type="curve" smooth="yes"/>
      <point x="172" y="579" type="line"/>
      <point x="292" y="475" type="line"/>
      <point x="295" y="472"/>
      <point x="304" y="467"/>
      <point x="312" y="473" type="curve"/>
      <point x="316" y="478"/>
      <point x="315" y="481"/>
    </contour>
  </outline>
</glyph>
<glyph name="bullet" format="2">
  <advance width="371"/>
  <unicode hex="2022"/>
  <outline>
    <contour>
      <point x="319" y="328" type="curve" smooth="yes"/>
      <point x="319" y="401"/>
      <point x="259" y="461"/>
      <point x="186" y="461" type="curve" smooth="yes"/>
      <point x="113" y="461"/>
      <point x="55" y="401"/>
      <point x="55" y="328" type="curve" smooth="yes"/>
      <point x="55" y="254"/>
      <point x="113" y="195"/>
      <point x="186" y="195" type="curve" smooth="yes"/>
      <point x="259" y="195"/>
      <point x="319" y="254"/>
    </contour>
  </outline>
</glyph>
<glyph name="ff" format="2">
  <advance width="627"/>
  <outline>
    <contour>
      <point x="743" y="669" type="curve" smooth="yes"/>
      <point x="743" y="672"/>
      <point x="742" y="677"/>
      <point x="740" y="679" type="curve"/>
      <point x="719" y="711"/>
      <point x="663" y="724"/>
      <point x="630" y="724" type="curve" smooth="yes"/>
      <point x="583" y="724"/>
      <point x="540" y="707"/>
      <point x="495" y="666" type="curve" smooth="yes"/>
      <point x="491" y="662"/>
      <point x="481" y="662"/>
      <point x="472" y="673" type="curve"/>
      <point x="393" y="739"/>
      <point x="265" y="691"/>
      <point x="198" y="631" type="curve" smooth="yes"/>
      <point x="144" y="582"/>
      <point x="120" y="552"/>
      <point x="112" y="481" type="curve" smooth="yes"/>
      <point x="110" y="462"/>
      <point x="109" y="439"/>
      <point x="106" y="412" type="curve"/>
      <point x="83" y="397"/>
      <point x="64" y="393"/>
      <point x="38" y="388" type="curve"/>
      <point x="35" y="387"/>
      <point x="29" y="385"/>
      <point x="26" y="382" type="curve"/>
      <point x="23" y="378"/>
      <point x="24" y="365"/>
      <point x="26" y="359" type="curve"/>
      <point x="26" y="357"/>
      <point x="28" y="355"/>
      <point x="30" y="353" type="curve"/>
      <point x="38" y="352"/>
      <point x="46" y="352"/>
      <point x="46" y="352" type="curve"/>
      <point x="91" y="352" type="line" smooth="yes"/>
      <point x="94" y="352"/>
      <point x="106" y="351"/>
      <point x="106" y="340" type="curve" smooth="yes"/>
      <point x="106" y="92" type="line" smooth="yes"/>
      <point x="106" y="36"/>
      <point x="97" y="31"/>
      <point x="41" y="31" type="curve"/>
      <point x="38" y="32"/>
      <point x="34" y="30"/>
      <point x="31" y="30" type="curve"/>
      <point x="16" y="27"/>
      <point x="17" y="7"/>
      <point x="21" y="0" type="curve"/>
      <point x="23" y="-3"/>
      <point x="30" y="-4"/>
      <point x="33" y="-4" type="curve" smooth="yes"/>
      <point x="99" y="-2"/>
      <point x="184" y="-2"/>
      <point x="274" y="-4" type="curve" smooth="yes"/>
      <point x="278" y="-4"/>
      <point x="285" y="-3"/>
      <point x="287" y="1" type="curve"/>
      <point x="289" y="8"/>
      <point x="289" y="25"/>
      <point x="280" y="29" type="curve"/>
      <point x="263" y="32"/>
      <point x="244" y="31"/>
      <point x="227" y="32" type="curve" smooth="yes"/>
      <point x="208" y="33"/>
      <point x="199" y="39"/>
      <point x="195" y="50" type="curve"/>
      <point x="190" y="61"/>
      <point x="189" y="78"/>
      <point x="189" y="90" type="curve" smooth="yes"/>
      <point x="186" y="173"/>
      <point x="189" y="256"/>
      <point x="189" y="337" type="curve"/>
      <point x="190" y="344"/>
      <point x="204" y="353"/>
      <point x="211" y="353" type="curve" smooth="yes"/>
      <point x="264" y="354"/>
      <point x="325" y="356"/>
      <point x="380" y="354" type="curve" smooth="yes"/>
      <point x="390" y="354"/>
      <point x="398" y="352"/>
      <point x="400" y="340" type="curve"/>
      <point x="400" y="130" type="line" smooth="yes"/>
      <point x="400" y="40"/>
      <point x="394" y="31"/>
      <point x="341" y="31" type="curve" smooth="yes"/>
      <point x="332" y="31" type="line"/>
      <point x="326" y="29"/>
      <point x="326" y="17"/>
      <point x="326" y="10" type="curve" smooth="yes"/>
      <point x="326" y="3"/>
      <point x="332" y="-5"/>
      <point x="339" y="-5" type="curve" smooth="yes"/>
      <point x="401" y="-4"/>
      <point x="525" y="-3"/>
      <point x="589" y="-5" type="curve" smooth="yes"/>
      <point x="594" y="-5"/>
      <point x="597" y="3"/>
      <point x="596" y="11" type="curve"/>
      <point x="596" y="18"/>
      <point x="594" y="31"/>
      <point x="590" y="32" type="curve"/>
      <point x="579" y="33"/>
      <point x="563" y="34"/>
      <point x="551" y="32" type="curve"/>
      <point x="485" y="32"/>
      <point x="480" y="43"/>
      <point x="480" y="126" type="curve" smooth="yes"/>
      <point x="480" y="339" type="line" smooth="yes"/>
      <point x="480" y="347"/>
      <point x="494" y="353"/>
      <point x="501" y="353" type="curve" smooth="yes"/>
      <point x="578" y="352" type="line" smooth="yes"/>
      <point x="585" y="352"/>
      <point x="591" y="355"/>
      <point x="593" y="360" type="curve"/>
      <point x="592" y="370"/>
      <point x="589" y="401"/>
      <point x="586" y="407" type="curve"/>
      <point x="581" y="415"/>
      <point x="581" y="415"/>
      <point x="571" y="415" type="curve" smooth="yes"/>
      <point x="503" y="414" type="line" smooth="yes"/>
      <point x="488" y="414"/>
      <point x="480" y="416"/>
      <point x="480" y="432" type="curve" smooth="yes"/>
      <point x="479" y="488"/>
      <point x="474" y="546"/>
      <point x="493" y="600" type="curve" smooth="yes"/>
      <point x="507" y="640"/>
      <point x="545" y="666"/>
      <point x="586" y="666" type="curve" smooth="yes"/>
      <point x="615" y="666"/>
      <point x="655" y="650"/>
      <point x="682" y="628" type="curve" smooth="yes"/>
      <point x="696" y="617"/>
      <point x="710" y="604"/>
      <point x="724" y="626" type="curve" smooth="yes"/>
      <point x="734" y="642"/>
      <point x="743" y="659"/>
    </contour>
    <contour>
      <point x="430" y="586" type="curve" smooth="yes"/>
      <point x="403" y="536"/>
      <point x="402" y="476"/>
      <point x="400" y="421" type="curve"/>
      <point x="400" y="413"/>
      <point x="384" y="412"/>
      <point x="377" y="412" type="curve" smooth="yes"/>
      <point x="328" y="410"/>
      <point x="246" y="410"/>
      <point x="201" y="412" type="curve"/>
      <point x="191" y="413"/>
      <point x="189" y="424"/>
      <point x="189" y="431" type="curve" smooth="yes"/>
      <point x="189" y="507"/>
      <point x="190" y="524"/>
      <point x="196" y="549" type="curve" smooth="yes"/>
      <point x="208" y="605"/>
      <point x="264" y="651"/>
      <point x="319" y="651" type="curve" smooth="yes"/>
      <point x="355" y="651"/>
      <point x="380" y="645"/>
      <point x="413" y="615" type="curve" smooth="yes"/>
      <point x="419" y="609"/>
      <point x="435" y="595"/>
    </contour>
  </outline>
</glyph>
<glyph name="fi" format="2">
  <advance width="555"/>
  <outline>
    <contour>
      <point x="506" y="25" type="curve" smooth="yes"/>
      <point x="485" y="28" type="line" smooth="yes"/>
      <point x="450" y="33"/>
      <point x="448" y="41"/>
      <point x="448" y="113" type="curve" smooth="yes"/>
      <point x="448" y="279" type="line" smooth="yes"/>
      <point x="448" y="320"/>
      <point x="450" y="368"/>
      <point x="452" y="404" type="curve"/>
      <point x="446" y="414"/>
      <point x="437" y="409"/>
      <point x="428" y="406" type="curve"/>
      <point x="400" y="400"/>
      <point x="348" y="396"/>
      <point x="311" y="395" type="curve" smooth="yes"/>
      <point x="285" y="394"/>
      <point x="240" y="394"/>
      <point x="208" y="395" type="curve" smooth="yes"/>
      <point x="180" y="396"/>
      <point x="182" y="413"/>
      <point x="182" y="436" type="curve" smooth="yes"/>
      <point x="182" y="590"/>
      <point x="217" y="675"/>
      <point x="294" y="675" type="curve" smooth="yes"/>
      <point x="319" y="675"/>
      <point x="357" y="658"/>
      <point x="386" y="609" type="curve" smooth="yes"/>
      <point x="391" y="601"/>
      <point x="399" y="594"/>
      <point x="413" y="594" type="curve" smooth="yes"/>
      <point x="428" y="594"/>
      <point x="455" y="605"/>
      <point x="455" y="636" type="curve" smooth="yes"/>
      <point x="455" y="679"/>
      <point x="398" y="715"/>
      <point x="330" y="715" type="curve" smooth="yes"/>
      <point x="218" y="715"/>
      <point x="157" y="631"/>
      <point x="136" y="580" type="curve" smooth="yes"/>
      <point x="113" y="526"/>
      <point x="105" y="469"/>
      <point x="105" y="412" type="curve" smooth="yes"/>
      <point x="105" y="403"/>
      <point x="99" y="396"/>
      <point x="91" y="392" type="curve" smooth="yes"/>
      <point x="73" y="382"/>
      <point x="54" y="380"/>
      <point x="48" y="374" type="curve"/>
      <point x="40" y="369"/>
      <point x="44" y="355"/>
      <point x="51" y="351" type="curve"/>
      <point x="85" y="348" type="line" smooth="yes"/>
      <point x="101" y="347"/>
      <point x="105" y="339"/>
      <point x="105" y="321" type="curve" smooth="yes"/>
      <point x="105" y="113" type="line" smooth="yes"/>
      <point x="105" y="41"/>
      <point x="104" y="33"/>
      <point x="69" y="28" type="curve" smooth="yes"/>
      <point x="46" y="25" type="line"/>
      <point x="38" y="21"/>
      <point x="37" y="11"/>
      <point x="40" y="4" type="curve" smooth="yes"/>
      <point x="43" y="-4"/>
      <point x="47" y="-4"/>
      <point x="55" y="-4" type="curve"/>
      <point x="83" y="-2"/>
      <point x="109" y="-1"/>
      <point x="142" y="-1" type="curve" smooth="yes"/>
      <point x="177" y="-1"/>
      <point x="207" y="-2"/>
      <point x="248" y="-4" type="curve"/>
      <point x="258" y="-1"/>
      <point x="262" y="24"/>
      <point x="250" y="25" type="curve" smooth="yes"/>
      <point x="218" y="28" type="line" smooth="yes"/>
      <point x="184" y="31"/>
      <point x="182" y="41"/>
      <point x="182" y="113" type="curve" smooth="yes"/>
      <point x="182" y="321" type="line" smooth="yes"/>
      <point x="182" y="345"/>
      <point x="187" y="350"/>
      <point x="203" y="351" type="curve" smooth="yes"/>
      <point x="232" y="352"/>
      <point x="294" y="352"/>
      <point x="323" y="351" type="curve" smooth="yes"/>
      <point x="365" y="350"/>
      <point x="372" y="347"/>
      <point x="372" y="286" type="curve" smooth="yes"/>
      <point x="372" y="113" type="line" smooth="yes"/>
      <point x="372" y="41"/>
      <point x="371" y="33"/>
      <point x="335" y="28" type="curve" smooth="yes"/>
      <point x="318" y="26"/>
      <point x="303" y="27"/>
      <point x="310" y="5" type="curve" smooth="yes"/>
      <point x="313" y="-5"/>
      <point x="318" y="-2"/>
      <point x="326" y="-2" type="curve"/>
      <point x="352" y="0"/>
      <point x="378" y="-2"/>
      <point x="410" y="-2" type="curve" smooth="yes"/>
      <point x="445" y="-2"/>
      <point x="475" y="-2"/>
      <point x="505" y="-4" type="curve"/>
      <point x="516" y="1"/>
      <point x="516" y="24"/>
    </contour>
  </outline>
</glyph>
